<svg width="16" height="16" viewBox="0 0 16 16" fill="none" xmlns="http://www.w3.org/2000/svg">
<path d="M9.4948 2.66021C9.38824 2.6618 9.28497 2.6974 9.20006 2.76181C9.11515 2.82623 9.05304 2.91608 9.02279 3.01828L6.0228 12.6849C6.00072 12.7483 5.99163 12.8154 5.99604 12.8824C6.00046 12.9493 6.0183 13.0147 6.0485 13.0746C6.0787 13.1345 6.12065 13.1877 6.17184 13.2311C6.22304 13.2744 6.28243 13.307 6.34649 13.3269C6.41054 13.3469 6.47796 13.3537 6.54471 13.347C6.61146 13.3404 6.67619 13.3203 6.73504 13.2881C6.79389 13.2559 6.84566 13.2122 6.88727 13.1596C6.92887 13.107 6.95947 13.0465 6.97722 12.9818L9.97722 3.31515C10.0019 3.23953 10.0081 3.15911 9.99545 3.08059C9.98279 3.00206 9.95158 2.92769 9.9044 2.86365C9.85723 2.7996 9.79546 2.74774 9.72422 2.71235C9.65298 2.67697 9.57433 2.65909 9.4948 2.66021ZM4.50326 4.32817C4.37325 4.3287 4.24855 4.37984 4.15561 4.47075L0.822275 7.63742C0.773072 7.68414 0.733891 7.74038 0.707116 7.80272C0.680342 7.86506 0.666534 7.9322 0.666534 8.00005C0.666534 8.0679 0.680342 8.13504 0.707116 8.19738C0.733891 8.25972 0.773072 8.31596 0.822275 8.36268L4.15561 11.5293C4.20323 11.5746 4.25929 11.61 4.3206 11.6336C4.38191 11.6571 4.44725 11.6684 4.51292 11.6667C4.57858 11.665 4.64326 11.6504 4.70327 11.6237C4.76329 11.597 4.81746 11.5588 4.86269 11.5112C4.90792 11.4635 4.94333 11.4075 4.96689 11.3462C4.99045 11.2849 5.0017 11.2195 5.00001 11.1538C4.99831 11.0882 4.98369 11.0235 4.957 10.9635C4.9303 10.9035 4.89204 10.8493 4.84441 10.8041L1.89259 8.00005L4.84441 5.19601C4.91859 5.12769 4.97037 5.03853 4.99296 4.94024C5.01555 4.84196 5.0079 4.73913 4.97101 4.64528C4.93411 4.55142 4.8697 4.47091 4.78622 4.41432C4.70275 4.35773 4.60411 4.3277 4.50326 4.32817ZM11.4818 4.32882C11.3823 4.33144 11.286 4.36365 11.2049 4.42133C11.1239 4.47902 11.0619 4.55956 11.0269 4.65266C10.9919 4.74576 10.9854 4.84719 11.0083 4.94398C11.0313 5.04077 11.0825 5.12852 11.1556 5.19601L14.1074 8.00005L11.1556 10.8041C11.108 10.8493 11.0697 10.9035 11.043 10.9635C11.0163 11.0235 11.0017 11.0882 11 11.1538C10.9983 11.2195 11.0096 11.2849 11.0331 11.3462C11.0567 11.4075 11.0921 11.4635 11.1373 11.5112C11.1826 11.5588 11.2367 11.597 11.2967 11.6237C11.3568 11.6504 11.4214 11.665 11.4871 11.6667C11.5528 11.6684 11.6181 11.6571 11.6794 11.6336C11.7407 11.61 11.7968 11.5746 11.8444 11.5293L15.1777 8.36268C15.2269 8.31596 15.2661 8.25972 15.2929 8.19738C15.3197 8.13504 15.3335 8.0679 15.3335 8.00005C15.3335 7.9322 15.3197 7.86506 15.2929 7.80272C15.2661 7.74038 15.2269 7.68414 15.1777 7.63742L11.8444 4.47075C11.7965 4.42404 11.7398 4.38742 11.6775 4.36304C11.6152 4.33866 11.5486 4.32703 11.4818 4.32882Z" fill="#1A1A1A"/>
</svg>
