<svg viewBox="0 0 16 16" fill="none" xmlns="http://www.w3.org/2000/svg">
<path d="M0.666626 3.33398H15.3333V12.6673H0.666626V3.33398Z" fill="#3F51B5"/>
<path d="M0.666626 4.73932L7.60329 8.97898L8.64629 7.27232L2.20263 3.33398H0.666626V4.73932Z" fill="white"/>
<path d="M15.3333 3.33398H14.1303L7.68701 7.27198L8.72968 8.97898L15.3333 4.94265V3.33398Z" fill="white"/>
<path d="M8.72968 6.75781L7.68701 8.46448L14.5637 12.6675H15.3333V10.7938L8.72968 6.75781Z" fill="white"/>
<path d="M0.666626 10.9978V12.6675H1.76996L8.64629 8.46481L7.60363 6.75781L0.666626 10.9978Z" fill="white"/>
<path d="M0.666626 6.66602H15.3333V9.33268H0.666626V6.66602Z" fill="white"/>
<path d="M6.66663 3.33398H9.33329V12.6673H6.66663V3.33398Z" fill="white"/>
<path d="M5.73929 6.66732L0.666626 3.56698V4.34832L4.46063 6.66732H5.73929ZM14.7696 3.33398L9.31563 6.66732H10.594L15.3333 3.77098V3.33398H14.7696ZM11.0273 9.33398L15.3333 11.9657V11.1843L12.3056 9.33398H11.0273ZM5.30596 9.33398L0.666626 12.1693V12.6673H1.13063L6.58429 9.33398H5.30596ZM0.666626 7.33398H15.3333V8.66732H0.666626V7.33398Z" fill="#E53935"/>
<path d="M7.33325 3.33398H8.66659V12.6673H7.33325V3.33398Z" fill="#E53935"/>
</svg>
